<svg width="626" height="417" viewBox="0 0 626 417" fill="none" xmlns="http://www.w3.org/2000/svg">
<path d="M159.338 183.496H119.348V325H95.0312V183.496H66.6133V171.777L95.0312 163.721V153.027C95.0312 139.551 97.0332 128.613 101.037 120.215C105.041 111.719 110.852 105.469 118.469 101.465C126.086 97.4609 135.363 95.459 146.301 95.459C152.453 95.459 158.068 95.9961 163.146 97.0703C168.322 98.1445 172.863 99.3652 176.77 100.732L170.471 119.922C167.15 118.848 163.391 117.871 159.191 116.992C155.09 116.016 150.891 115.527 146.594 115.527C137.316 115.527 130.432 118.555 125.939 124.609C121.545 130.566 119.348 139.941 119.348 152.734V164.453H159.338V183.496ZM363.244 161.523C380.92 161.523 394.25 166.162 403.234 175.439C412.219 184.619 416.711 199.414 416.711 219.824V325H392.688V220.996C392.688 208.008 389.855 198.291 384.191 191.846C378.625 185.303 370.324 182.031 359.289 182.031C343.762 182.031 332.482 186.523 325.451 195.508C318.42 204.492 314.904 217.725 314.904 235.205V325H290.734V220.996C290.734 212.305 289.465 205.078 286.926 199.316C284.484 193.555 280.773 189.258 275.793 186.426C270.91 183.496 264.709 182.031 257.189 182.031C246.545 182.031 238 184.229 231.555 188.623C225.109 193.018 220.422 199.561 217.492 208.252C214.66 216.846 213.244 227.441 213.244 240.039V325H188.928V164.453H208.557L212.219 187.158H213.537C216.76 181.592 220.812 176.904 225.695 173.096C230.578 169.287 236.047 166.406 242.102 164.453C248.156 162.5 254.602 161.523 261.438 161.523C273.645 161.523 283.85 163.818 292.053 168.408C300.354 172.9 306.359 179.785 310.07 189.062H311.389C316.662 179.785 323.889 172.9 333.068 168.408C342.248 163.818 352.307 161.523 363.244 161.523ZM539.611 161.523C542.834 161.523 546.203 161.719 549.719 162.109C553.234 162.402 556.359 162.842 559.094 163.428L556.018 185.986C553.381 185.303 550.451 184.766 547.229 184.375C544.006 183.984 540.979 183.789 538.146 183.789C531.701 183.789 525.598 185.107 519.836 187.744C514.172 190.283 509.191 193.994 504.895 198.877C500.598 203.662 497.229 209.473 494.787 216.309C492.346 223.047 491.125 230.566 491.125 238.867V325H466.662V164.453H486.877L489.514 194.043H490.539C493.859 188.086 497.863 182.666 502.551 177.783C507.238 172.803 512.658 168.848 518.811 165.918C525.061 162.988 531.994 161.523 539.611 161.523Z" fill="black"/>
<rect x="8" y="8" width="610" height="401" rx="78" stroke="black" stroke-width="16"/>
</svg>
