<svg xmlns="http://www.w3.org/2000/svg" viewBox="5.818 5.502 88.363 88.999"><path fill-rule="evenodd" clip-rule="evenodd" d="M27.751 67.15l-.001-4.54-16.454.033c-3.027.017-5.475-2.431-5.478-5.47V21.941c.003-3.014 2.451-5.462 5.453-5.462 1.313 0 2.521.469 3.441 1.225l15.019 15.069c1.434 1.484 2.331 3.479 2.318 5.568l-.033 20.008 4.595.026-.001-15.947c.011-2.975 2.459-5.423 5.51-5.43l16.99.028v-4.742l-19.718.03a8.08 8.08 0 0 1-5.582-2.264L18.42 14.972c-1.075-.938-1.807-2.414-1.807-4.055 0-3.002 2.448-5.45 5.526-5.415h35.67c3.099-.035 5.548 2.413 5.544 5.212l.024 17.276 4.386.056-.01-11.806c-.002-3.042 2.519-5.49 5.442-5.49 1.37 0 2.638.538 3.672 1.435l10.798 10.549c.974.952 1.913 2.361 1.913 4.096 0 3.002-2.448 5.457-5.33 5.467l-12.163.043v4.658l16.678-.037a5.412 5.412 0 0 1 5.418 5.451L94.17 78.11c-.001 3.088-2.445 5.537-5.447 5.537-1.595 0-2.99-.732-3.995-1.735l-14.585-14.56c-1.447-1.444-2.376-3.411-2.377-5.455l-.004-20.661-4.414.084.016 15.931c.015 2.96-2.433 5.4-5.411 5.392l-17.076-.047.004 4.596 19.44-.016a7.882 7.882 0 0 1 5.57 2.301l15.985 16.035c.868.87 1.242 2.163 1.242 3.476 0 3.002-2.448 5.45-5.546 5.471l-35.508.041c-3.102.02-5.55-2.428-5.507-5.539l.068-17.508-4.598.029.023 11.997c.013 3.031-2.435 5.479-5.437 5.479a5.414 5.414 0 0 1-3.642-1.401l-11.506-11.45a5.213 5.213 0 0 1-1.187-3.44c.063-3.002 2.448-5.45 5.331-5.482l12.135-.032M27.722 38.6c-.029-1.116-.492-2.146-1.173-2.829L12.096 21.133a1.12 1.12 0 0 0-.824-.36c-.637 0-1.156.519-1.163 1.258V57.12c.008.726.527 1.245 1.213 1.233l16.429-.032-.029-19.721zm30.179 19.754l-16.997-.009L40.9 42.47a1.21 1.21 0 0 1 1.199-1.183l16.983.033-.007 15.87c.011.657-.509 1.164-1.174 1.164zm20.542 29.772L63.137 72.745c-.709-.712-1.703-1.255-2.816-1.257l-19.44-.034-.035 17.565c-.039.688.481 1.207 1.101 1.192l35.763-.041c.594-.025 1.113-.544 1.113-1.181 0-.319-.128-.61-.38-.863zM36.584 62.61l-.005 4.515-4.553.053.017-4.515 4.541-.053zM27.76 83.419l.01-11.91-12.062-.013a1.176 1.176 0 0 0-1.136 1.17c0 .318.13.607.33.829L25.599 84.12c.263.34.615.543 1.013.543.637-.001 1.156-.52 1.148-1.244zm31.303-72.658l.019 17.284-19.526-.021a4.33 4.33 0 0 1-2.942-1.164L21.308 11.77c-.199-.104-.402-.456-.402-.854 0-.637.519-1.156 1.158-1.125h35.88c.598-.031 1.118.488 1.119.97zm8.7 26.237l.028-4.63-4.414-.056v4.658l4.386.028zm17.168-10.999L74.106 15.276c-.162-.252-.514-.455-.912-.455-.637 0-1.156.519-1.152 1.203l.043 12.021 12.037-.038a1.192 1.192 0 0 0 1.161-1.178 1.16 1.16 0 0 0-.352-.83zm4.97 16.382c0-.637-.519-1.156-1.247-1.131l-16.597.014-.004 20.39c0 .834.51 1.821 1.194 2.514l14.571 14.741c.201.203.507.443.904.443.637 0 1.156-.519 1.157-1.168l.001-35.906" fill="#000000"/></svg>